<svg width="1280" height="1280" xmlns="http://www.w3.org/2000/svg" xmlns:xlink="http://www.w3.org/1999/xlink" overflow="hidden"><g><rect x="0" y="0" width="1280" height="1280" fill="#FFFFFF" fill-opacity="0"/><path d="M472 1199.23C629.77 1251.96 774.171 1234.98 833 1191.19L627.096 966 472 1199.23Z" fill="#FDAF67" fill-rule="evenodd"/><path d="M647.544 48C48.1671 708.284 710.816 1158.75 827.1 1199 1128.07 993.464 1095.58 813.62 1099 751.96 1051.12 429.954 798.029 282.653 647.544 48Z" fill="#DD6447" fill-rule="evenodd"/><path d="M216.25 531.56C106.695 897.796 269.316 1089.47 473.02 1199 712.672 1046.69 705.824 832.763 652.759 726.658 568.881 569.21 423.377 493.91 216.25 531.56Z" fill="#FFD97F" fill-rule="evenodd"/><path d="M403.17 531 423.427 534.597C523.935 561.329 600.385 627.706 652.777 726.203 689.238 799.218 703.866 923.242 631.62 1043.17L622.987 1056 613.292 1047.17C499.023 934.6 387.85 764.659 401.073 550.782Z" fill="#FDAF67" fill-rule="evenodd"/></g></svg>