<svg xmlns="http://www.w3.org/2000/svg" viewBox="0 0 24 24" id="mongodb"><path fill="#FFF" d="m12.546 24-.639-.218s.078-3.257-1.091-3.491c-.779-.904.125-38.338 2.93-.125 0 0-.966.483-1.138 1.309-.186.811-.062 2.525-.062 2.525z"></path><path fill="#A6A385" d="m12.546 24-.639-.218s.078-3.257-1.091-3.491c-.779-.904.125-38.338 2.93-.125 0 0-.966.483-1.138 1.309-.186.811-.062 2.525-.062 2.525z"></path><path fill="#FFF" d="M12.889 20.852s5.595-3.678 4.286-11.33c-1.262-5.563-4.239-7.387-4.566-8.088-.358-.499-.701-1.371-.701-1.371l.234 15.475c-.001.015-.484 4.737.747 5.314z"></path><path fill="#499D4A" d="M12.889 20.852s5.595-3.678 4.286-11.33c-1.262-5.563-4.239-7.387-4.566-8.088-.358-.499-.701-1.371-.701-1.371l.234 15.475c-.001.015-.484 4.737.747 5.314z"></path><path fill="#FFF" d="M11.58 21.054s-5.252-3.584-4.94-9.896c.296-6.312 4.005-9.413 4.722-9.974.468-.498.483-.685.514-1.184.327.701.265 10.488.312 11.641.14 4.442-.249 8.572-.608 9.413z"></path><path fill="#58AA50" d="M11.58 21.054s-5.252-3.584-4.94-9.896c.296-6.312 4.005-9.413 4.722-9.974.468-.498.483-.685.514-1.184.327.701.265 10.488.312 11.641.14 4.442-.249 8.572-.608 9.413z"></path></svg>