<?xml version="1.0" encoding="UTF-8"?>
<svg id="Layer_1" xmlns="http://www.w3.org/2000/svg" version="1.1" viewBox="0 0 150 150">
  <!-- Generator: Adobe Illustrator 29.1.0, SVG Export Plug-In . SVG Version: 2.1.0 Build 142)  -->
  <defs>
    <style>
      .st0 {
        fill: #fff;
        fill-rule: evenodd;
      }

      .st1 {
        fill: #ef4a85;
      }
    </style>
  </defs>
  <path class="st1" d="M26.4,130.3l-4.1-108.2c-.1-3.6,2.6-6.6,6.2-6.8l92.1-5.8c3.6-.2,6.8,2.5,7,6.2,0,.1,0,.3,0,.4v118c0,3.6-3,6.6-6.6,6.6s-.2,0-.3,0l-88-4c-3.4-.2-6.2-2.9-6.3-6.3Z"/>
  <path class="st0" d="M113.4,9.9l-12.7.8-.6,14.9c0,.2,0,.5.2.6.3.4.9.5,1.4.2l5.8-4.4,4.9,3.8c.2.1.4.2.6.2.5,0,1-.5.9-1l-.5-15.1ZM103.5,59.7c-2.3,1.8-19.6,3-19.6.5.4-9.8-4-10.2-6.5-10.2s-6.2.7-6.2,5.9,5.7,8.4,12.4,11.9c9.5,5,21,11.1,21,26.4s-11.9,22.8-27.1,22.8-29.4-6.4-27.9-28.4c.6-2.6,20.6-2,20.6,0-.2,9.1,1.8,11.8,7.1,11.8s5.8-2.2,5.8-5.9c0-5.6-5.9-9-12.8-12.8-9.2-5.2-20.1-11.3-20.1-25.3s9.6-23.3,26.8-23.3,26.5,9.2,26.5,26.6Z"/>
</svg>